<svg xmlns="http://www.w3.org/2000/svg" xmlns:xlink="http://www.w3.org/1999/xlink" xmlns:lucid="lucid" width="760" height="347"><g transform="translate(-520 -1520)" lucid:page-tab-id="0_0"><path d="M0 1258.83h1870.87v1322.84H0z" fill="#fff"/><path d="M540 1540h720v307H540z" stroke="#333" stroke-width="2" fill="#fff"/><path d="M540 1577.6h720m-720 123.9h720" stroke="#333" stroke-width="2" fill="none"/><use xlink:href="#a" transform="matrix(1,0,0,1,548,1548) translate(319.75 14.6)"/><use xlink:href="#b" transform="matrix(1,0,0,1,552,1585.6) translate(250.1 25.19999999999999)"/><use xlink:href="#c" transform="matrix(1,0,0,1,552,1585.6) translate(299.1 25.19999999999999)"/><use xlink:href="#d" transform="matrix(1,0,0,1,552,1585.6) translate(275.65 46.79999999999999)"/><use xlink:href="#e" transform="matrix(1,0,0,1,552,1585.6) translate(310.59999999999997 46.79999999999999)"/><use xlink:href="#f" transform="matrix(1,0,0,1,552,1585.6) translate(252.1 68.39999999999999)"/><use xlink:href="#g" transform="matrix(1,0,0,1,552,1585.6) translate(357 68.39999999999999)"/><use xlink:href="#h" transform="matrix(1,0,0,1,552,1585.6) translate(398 68.39999999999999)"/><use xlink:href="#i" transform="matrix(1,0,0,1,552,1585.6) translate(266.075 90)"/><use xlink:href="#j" transform="matrix(1,0,0,1,552,1585.6) translate(364.975 90)"/><g><use xlink:href="#k" transform="matrix(1,0,0,1,552,1709.5) translate(103.40000000000003 25.39999999999999)"/><use xlink:href="#l" transform="matrix(1,0,0,1,552,1709.5) translate(445.84999999999997 25.39999999999999)"/><use xlink:href="#m" transform="matrix(1,0,0,1,552,1709.5) translate(567.7 25.39999999999999)"/><use xlink:href="#n" transform="matrix(1,0,0,1,552,1709.5) translate(222.75 46.99999999999999)"/><use xlink:href="#o" transform="matrix(1,0,0,1,552,1709.5) translate(348.5 46.99999999999999)"/><use xlink:href="#p" transform="matrix(1,0,0,1,552,1709.5) translate(377.45000000000005 46.99999999999999)"/><use xlink:href="#m" transform="matrix(1,0,0,1,552,1709.5) translate(448.35 46.99999999999999)"/><use xlink:href="#q" transform="matrix(1,0,0,1,552,1709.5) translate(164.825 68.6)"/><use xlink:href="#o" transform="matrix(1,0,0,1,552,1709.5) translate(290.575 68.6)"/><use xlink:href="#p" transform="matrix(1,0,0,1,552,1709.5) translate(319.525 68.6)"/><use xlink:href="#o" transform="matrix(1,0,0,1,552,1709.5) translate(390.425 68.6)"/><use xlink:href="#r" transform="matrix(1,0,0,1,552,1709.5) translate(419.375 68.6)"/><use xlink:href="#m" transform="matrix(1,0,0,1,552,1709.5) translate(506.27500000000003 68.6)"/><use xlink:href="#s" transform="matrix(1,0,0,1,552,1709.5) translate(32.22500000000002 90.20000000000002)"/><use xlink:href="#o" transform="matrix(1,0,0,1,552,1709.5) translate(213.925 90.20000000000002)"/><use xlink:href="#t" transform="matrix(1,0,0,1,552,1709.5) translate(242.875 90.20000000000002)"/><use xlink:href="#o" transform="matrix(1,0,0,1,552,1709.5) translate(341.375 90.20000000000002)"/><use xlink:href="#u" transform="matrix(1,0,0,1,552,1709.5) translate(370.325 90.20000000000002)"/><use xlink:href="#o" transform="matrix(1,0,0,1,552,1709.5) translate(423.175 90.20000000000002)"/><use xlink:href="#p" transform="matrix(1,0,0,1,552,1709.5) translate(452.125 90.20000000000002)"/><use xlink:href="#o" transform="matrix(1,0,0,1,552,1709.5) translate(523.025 90.20000000000002)"/><use xlink:href="#r" transform="matrix(1,0,0,1,552,1709.5) translate(551.975 90.20000000000002)"/><use xlink:href="#m" transform="matrix(1,0,0,1,552,1709.5) translate(638.875 90.20000000000002)"/><use xlink:href="#v" transform="matrix(1,0,0,1,552,1709.5) translate(300.1 111.80000000000001)"/></g><defs><path fill="#333" d="M266 0h-40l-56-210L115 0H75L2-248h35L96-30l15-64 43-154h32l59 218 59-218h35" id="w"/><path fill="#333" d="M100-194c62-1 85 37 85 99 1 63-27 99-86 99S16-35 15-95c0-66 28-99 85-99zM99-20c44 1 53-31 53-75 0-43-8-75-51-75s-53 32-53 75 10 74 51 75" id="x"/><path fill="#333" d="M114-163C36-179 61-72 57 0H25l-1-190h30c1 12-1 29 2 39 6-27 23-49 58-41v29" id="y"/><path fill="#333" d="M143 0L79-87 56-68V0H24v-261h32v163l83-92h37l-77 82L181 0h-38" id="z"/><path fill="#333" d="M24-231v-30h32v30H24zM24 0v-190h32V0H24" id="A"/><path fill="#333" d="M117-194c89-4 53 116 60 194h-32v-121c0-31-8-49-39-48C34-167 62-67 57 0H25l-1-190h30c1 10-1 24 2 32 11-22 29-35 61-36" id="B"/><path fill="#333" d="M177-190C167-65 218 103 67 71c-23-6-38-20-44-43l32-5c15 47 100 32 89-28v-30C133-14 115 1 83 1 29 1 15-40 15-95c0-56 16-97 71-98 29-1 48 16 59 35 1-10 0-23 2-32h30zM94-22c36 0 50-32 50-73 0-42-14-75-50-75-39 0-46 34-46 75s6 73 46 73" id="C"/><g id="a"><use transform="matrix(0.05,0,0,0.05,0,0)" xlink:href="#w"/><use transform="matrix(0.05,0,0,0.05,16.599999999999998,0)" xlink:href="#x"/><use transform="matrix(0.05,0,0,0.05,26.599999999999994,0)" xlink:href="#y"/><use transform="matrix(0.05,0,0,0.05,32.55,0)" xlink:href="#z"/><use transform="matrix(0.05,0,0,0.05,41.55,0)" xlink:href="#A"/><use transform="matrix(0.05,0,0,0.05,45.5,0)" xlink:href="#B"/><use transform="matrix(0.05,0,0,0.05,55.5,0)" xlink:href="#C"/></g><path fill="#333" d="M96-169c-40 0-48 33-48 73s9 75 48 75c24 0 41-14 43-38l32 2c-6 37-31 61-74 61-59 0-76-41-82-99-10-93 101-131 147-64 4 7 5 14 7 22l-32 3c-4-21-16-35-41-35" id="D"/><path fill="#333" d="M33-154v-36h34v36H33zM33 0v-36h34V0H33" id="E"/><g id="b"><use transform="matrix(0.05,0,0,0.05,0,0)" xlink:href="#D"/><use transform="matrix(0.05,0,0,0.05,9,0)" xlink:href="#x"/><use transform="matrix(0.05,0,0,0.05,19,0)" xlink:href="#B"/><use transform="matrix(0.05,0,0,0.05,29,0)" xlink:href="#B"/><use transform="matrix(0.05,0,0,0.05,39,0)" xlink:href="#E"/></g><path fill="#333" d="M135-143c-3-34-86-38-87 0 15 53 115 12 119 90S17 21 10-45l28-5c4 36 97 45 98 0-10-56-113-15-118-90-4-57 82-63 122-42 12 7 21 19 24 35" id="F"/><path fill="#333" d="M145-31C134-9 116 4 85 4 32 4 16-35 15-94c0-59 17-99 70-100 32-1 48 14 60 33 0-11-1-24 2-32h30l-1 268h-32zM93-21c41 0 51-33 51-76s-8-73-50-73c-40 0-46 35-46 75s5 74 45 74" id="G"/><path fill="#333" d="M24 0v-261h32V0H24" id="H"/><path fill="#333" d="M59-47c-2 24 18 29 38 22v24C64 9 27 4 27-40v-127H5v-23h24l9-43h21v43h35v23H59v120" id="I"/><path fill="#333" d="M100-194c63 0 86 42 84 106H49c0 40 14 67 53 68 26 1 43-12 49-29l28 8c-11 28-37 45-77 45C44 4 14-33 15-96c1-61 26-98 85-98zm52 81c6-60-76-77-97-28-3 7-6 17-6 28h103" id="J"/><path fill="#333" d="M126-127c33 6 58 20 58 59 0 88-139 92-164 29-3-8-5-16-6-25l32-3c6 27 21 44 54 44 32 0 52-15 52-46 0-38-36-46-79-43v-28c39 1 72-4 72-42 0-27-17-43-46-43-28 0-47 15-49 41l-32-3c6-42 35-63 81-64 48-1 79 21 79 65 0 36-21 52-52 59" id="K"/><path fill="#333" d="M33 0v-38h34V0H33" id="L"/><path fill="#333" d="M212-179c-10-28-35-45-73-45-59 0-87 40-87 99 0 60 29 101 89 101 43 0 62-24 78-52l27 14C228-24 195 4 139 4 59 4 22-46 18-125c-6-104 99-153 187-111 19 9 31 26 39 46" id="M"/><g id="c"><use transform="matrix(0.05,0,0,0.05,0,0)" xlink:href="#F"/><use transform="matrix(0.05,0,0,0.05,9,0)" xlink:href="#G"/><use transform="matrix(0.05,0,0,0.05,19,0)" xlink:href="#H"/><use transform="matrix(0.05,0,0,0.05,22.95,0)" xlink:href="#A"/><use transform="matrix(0.05,0,0,0.05,26.899999999999995,0)" xlink:href="#I"/><use transform="matrix(0.05,0,0,0.05,31.899999999999995,0)" xlink:href="#J"/><use transform="matrix(0.05,0,0,0.05,41.9,0)" xlink:href="#K"/><use transform="matrix(0.05,0,0,0.05,51.900000000000006,0)" xlink:href="#L"/><use transform="matrix(0.05,0,0,0.05,56.900000000000006,0)" xlink:href="#M"/><use transform="matrix(0.05,0,0,0.05,69.85,0)" xlink:href="#x"/><use transform="matrix(0.05,0,0,0.05,79.85,0)" xlink:href="#B"/><use transform="matrix(0.05,0,0,0.05,89.85,0)" xlink:href="#B"/><use transform="matrix(0.05,0,0,0.05,99.85,0)" xlink:href="#J"/><use transform="matrix(0.05,0,0,0.05,109.84999999999998,0)" xlink:href="#D"/><use transform="matrix(0.05,0,0,0.05,118.84999999999998,0)" xlink:href="#I"/><use transform="matrix(0.05,0,0,0.05,123.84999999999998,0)" xlink:href="#A"/><use transform="matrix(0.05,0,0,0.05,127.80000000000001,0)" xlink:href="#x"/><use transform="matrix(0.05,0,0,0.05,137.8,0)" xlink:href="#B"/></g><path fill="#333" d="M84 4C-5 8 30-112 23-190h32v120c0 31 7 50 39 49 72-2 45-101 50-169h31l1 190h-30c-1-10 1-25-2-33-11 22-28 36-60 37" id="N"/><g id="d"><use transform="matrix(0.05,0,0,0.05,0,0)" xlink:href="#D"/><use transform="matrix(0.05,0,0,0.05,9,0)" xlink:href="#N"/><use transform="matrix(0.05,0,0,0.05,19,0)" xlink:href="#y"/><use transform="matrix(0.05,0,0,0.05,24.95,0)" xlink:href="#E"/></g><g id="e"><use transform="matrix(0.05,0,0,0.05,0,0)" xlink:href="#F"/><use transform="matrix(0.05,0,0,0.05,9,0)" xlink:href="#G"/><use transform="matrix(0.05,0,0,0.05,19,0)" xlink:href="#H"/><use transform="matrix(0.05,0,0,0.05,22.95,0)" xlink:href="#A"/><use transform="matrix(0.05,0,0,0.05,26.899999999999995,0)" xlink:href="#I"/><use transform="matrix(0.05,0,0,0.05,31.899999999999995,0)" xlink:href="#J"/><use transform="matrix(0.05,0,0,0.05,41.9,0)" xlink:href="#K"/><use transform="matrix(0.05,0,0,0.05,51.900000000000006,0)" xlink:href="#L"/><use transform="matrix(0.05,0,0,0.05,56.900000000000006,0)" xlink:href="#M"/><use transform="matrix(0.05,0,0,0.05,69.85,0)" xlink:href="#N"/><use transform="matrix(0.05,0,0,0.05,79.85,0)" xlink:href="#y"/><use transform="matrix(0.05,0,0,0.05,85.8,0)" xlink:href="#F"/><use transform="matrix(0.05,0,0,0.05,94.8,0)" xlink:href="#x"/><use transform="matrix(0.05,0,0,0.05,104.80000000000001,0)" xlink:href="#y"/></g><path fill="#333" d="M-5 72V49h209v23H-5" id="O"/><path fill="#333" d="M115-194c55 1 70 41 70 98S169 2 115 4C84 4 66-9 55-30l1 105H24l-1-265h31l2 30c10-21 28-34 59-34zm-8 174c40 0 45-34 45-75s-6-73-45-74c-42 0-51 32-51 76 0 43 10 73 51 73" id="P"/><path fill="#333" d="M108 0H70L1-190h34L89-25l56-165h34" id="Q"/><path fill="#333" d="M141-36C126-15 110 5 73 4 37 3 15-17 15-53c-1-64 63-63 125-63 3-35-9-54-41-54-24 1-41 7-42 31l-33-3c5-37 33-52 76-52 45 0 72 20 72 64v82c-1 20 7 32 28 27v20c-31 9-61-2-59-35zM48-53c0 20 12 33 32 33 41-3 63-29 60-74-43 2-92-5-92 41" id="R"/><path fill="#333" d="M194 0L95-120 63-95V0H30v-248h33v124l119-124h40L117-140 236 0h-42" id="S"/><path fill="#333" d="M179-190L93 31C79 59 56 82 12 73V49c39 6 53-20 64-50L1-190h34L92-34l54-156h33" id="T"/><g id="f"><use transform="matrix(0.05,0,0,0.05,0,0)" xlink:href="#O"/><use transform="matrix(0.05,0,0,0.05,10,0)" xlink:href="#P"/><use transform="matrix(0.05,0,0,0.05,20,0)" xlink:href="#y"/><use transform="matrix(0.05,0,0,0.05,25.950000000000003,0)" xlink:href="#A"/><use transform="matrix(0.05,0,0,0.05,29.899999999999995,0)" xlink:href="#Q"/><use transform="matrix(0.05,0,0,0.05,38.9,0)" xlink:href="#R"/><use transform="matrix(0.05,0,0,0.05,48.9,0)" xlink:href="#I"/><use transform="matrix(0.05,0,0,0.05,53.900000000000006,0)" xlink:href="#J"/><use transform="matrix(0.05,0,0,0.05,63.900000000000006,0)" xlink:href="#S"/><use transform="matrix(0.05,0,0,0.05,75.9,0)" xlink:href="#J"/><use transform="matrix(0.05,0,0,0.05,85.9,0)" xlink:href="#T"/><use transform="matrix(0.05,0,0,0.05,94.9,0)" xlink:href="#E"/></g><path fill="#333" d="M160-131c35 5 61 23 61 61C221 17 115-2 30 0v-248c76 3 177-17 177 60 0 33-19 50-47 57zm-97-11c50-1 110 9 110-42 0-47-63-36-110-37v79zm0 115c55-2 124 14 124-45 0-56-70-42-124-44v89" id="U"/><g id="g"><use transform="matrix(0.05,0,0,0.05,0,0)" xlink:href="#U"/><use transform="matrix(0.05,0,0,0.05,12,0)" xlink:href="#T"/><use transform="matrix(0.05,0,0,0.05,21,0)" xlink:href="#I"/><use transform="matrix(0.05,0,0,0.05,26,0)" xlink:href="#J"/></g><path fill="#333" d="M185-189c-5-48-123-54-124 2 14 75 158 14 163 119 3 78-121 87-175 55-17-10-28-26-33-46l33-7c5 56 141 63 141-1 0-78-155-14-162-118-5-82 145-84 179-34 5 7 8 16 11 25" id="V"/><g id="h"><use transform="matrix(0.05,0,0,0.05,0,0)" xlink:href="#V"/><use transform="matrix(0.05,0,0,0.05,12,0)" xlink:href="#I"/><use transform="matrix(0.05,0,0,0.05,17,0)" xlink:href="#y"/><use transform="matrix(0.05,0,0,0.05,22.95,0)" xlink:href="#A"/><use transform="matrix(0.05,0,0,0.05,26.899999999999995,0)" xlink:href="#B"/><use transform="matrix(0.05,0,0,0.05,36.9,0)" xlink:href="#C"/></g><g id="i"><use transform="matrix(0.05,0,0,0.05,0,0)" xlink:href="#H"/><use transform="matrix(0.05,0,0,0.05,3.95,0)" xlink:href="#x"/><use transform="matrix(0.05,0,0,0.05,13.949999999999998,0)" xlink:href="#C"/><use transform="matrix(0.05,0,0,0.05,23.95,0)" xlink:href="#A"/><use transform="matrix(0.05,0,0,0.05,27.899999999999995,0)" xlink:href="#B"/><use transform="matrix(0.05,0,0,0.05,37.9,0)" xlink:href="#V"/><use transform="matrix(0.05,0,0,0.05,49.9,0)" xlink:href="#I"/><use transform="matrix(0.05,0,0,0.05,54.900000000000006,0)" xlink:href="#R"/><use transform="matrix(0.05,0,0,0.05,64.9,0)" xlink:href="#I"/><use transform="matrix(0.05,0,0,0.05,69.9,0)" xlink:href="#N"/><use transform="matrix(0.05,0,0,0.05,79.9,0)" xlink:href="#F"/><use transform="matrix(0.05,0,0,0.05,88.9,0)" xlink:href="#E"/></g><g id="j"><use transform="matrix(0.05,0,0,0.05,0,0)" xlink:href="#U"/><use transform="matrix(0.05,0,0,0.05,12,0)" xlink:href="#x"/><use transform="matrix(0.05,0,0,0.05,22,0)" xlink:href="#x"/><use transform="matrix(0.05,0,0,0.05,32,0)" xlink:href="#H"/><use transform="matrix(0.05,0,0,0.05,35.95,0)" xlink:href="#J"/><use transform="matrix(0.05,0,0,0.05,45.95,0)" xlink:href="#R"/><use transform="matrix(0.05,0,0,0.05,55.95,0)" xlink:href="#B"/></g><path fill="#333" d="M106-169C34-169 62-67 57 0H25v-261h32l-1 103c12-21 28-36 61-36 89 0 53 116 60 194h-32v-121c2-32-8-49-39-48" id="W"/><path fill="#333" d="M30-248c87 1 191-15 191 75 0 78-77 80-158 76V0H30v-248zm33 125c57 0 124 11 124-50 0-59-68-47-124-48v98" id="X"/><path fill="#333" d="M210-169c-67 3-38 105-44 169h-31v-121c0-29-5-50-35-48C34-165 62-65 56 0H25l-1-190h30c1 10-1 24 2 32 10-44 99-50 107 0 11-21 27-35 58-36 85-2 47 119 55 194h-31v-121c0-29-5-49-35-48" id="Y"/><path fill="#333" d="M206 0h-36l-40-164L89 0H53L-1-190h32L70-26l43-164h34l41 164 42-164h31" id="Z"/><path fill="#333" d="M85-194c31 0 48 13 60 33l-1-100h32l1 261h-30c-2-10 0-23-3-31C134-8 116 4 85 4 32 4 16-35 15-94c0-66 23-100 70-100zm9 24c-40 0-46 34-46 75 0 40 6 74 45 74 42 0 51-32 51-76 0-42-9-74-50-73" id="aa"/><path fill="#333" d="M87 75C49 33 22-17 22-94c0-76 28-126 65-167h31c-38 41-64 92-64 168S80 34 118 75H87" id="ab"/><path fill="#333" d="M68-38c1 34 0 65-14 84H32c9-13 17-26 17-46H33v-38h35" id="ac"/><g id="k"><use transform="matrix(0.05,0,0,0.05,0,0)" xlink:href="#D"/><use transform="matrix(0.05,0,0,0.05,9,0)" xlink:href="#W"/><use transform="matrix(0.05,0,0,0.05,19,0)" xlink:href="#R"/><use transform="matrix(0.05,0,0,0.05,29,0)" xlink:href="#B"/><use transform="matrix(0.05,0,0,0.05,39,0)" xlink:href="#C"/><use transform="matrix(0.05,0,0,0.05,49,0)" xlink:href="#J"/><use transform="matrix(0.05,0,0,0.05,59,0)" xlink:href="#X"/><use transform="matrix(0.05,0,0,0.05,71,0)" xlink:href="#y"/><use transform="matrix(0.05,0,0,0.05,76.95,0)" xlink:href="#A"/><use transform="matrix(0.05,0,0,0.05,80.9,0)" xlink:href="#Y"/><use transform="matrix(0.05,0,0,0.05,95.85000000000001,0)" xlink:href="#R"/><use transform="matrix(0.05,0,0,0.05,105.85000000000001,0)" xlink:href="#y"/><use transform="matrix(0.05,0,0,0.05,111.80000000000001,0)" xlink:href="#T"/><use transform="matrix(0.05,0,0,0.05,120.80000000000001,0)" xlink:href="#X"/><use transform="matrix(0.05,0,0,0.05,132.8,0)" xlink:href="#R"/><use transform="matrix(0.05,0,0,0.05,142.8,0)" xlink:href="#F"/><use transform="matrix(0.05,0,0,0.05,151.8,0)" xlink:href="#F"/><use transform="matrix(0.05,0,0,0.05,160.8,0)" xlink:href="#Z"/><use transform="matrix(0.05,0,0,0.05,173.75,0)" xlink:href="#x"/><use transform="matrix(0.05,0,0,0.05,183.75,0)" xlink:href="#y"/><use transform="matrix(0.05,0,0,0.05,189.7,0)" xlink:href="#aa"/><use transform="matrix(0.05,0,0,0.05,199.7,0)" xlink:href="#ab"/><use transform="matrix(0.05,0,0,0.05,205.64999999999998,0)" xlink:href="#x"/><use transform="matrix(0.05,0,0,0.05,215.64999999999998,0)" xlink:href="#H"/><use transform="matrix(0.05,0,0,0.05,219.59999999999997,0)" xlink:href="#aa"/><use transform="matrix(0.05,0,0,0.05,229.59999999999997,0)" xlink:href="#X"/><use transform="matrix(0.05,0,0,0.05,241.59999999999997,0)" xlink:href="#R"/><use transform="matrix(0.05,0,0,0.05,251.59999999999997,0)" xlink:href="#F"/><use transform="matrix(0.05,0,0,0.05,260.59999999999997,0)" xlink:href="#F"/><use transform="matrix(0.05,0,0,0.05,269.59999999999997,0)" xlink:href="#Z"/><use transform="matrix(0.05,0,0,0.05,282.54999999999995,0)" xlink:href="#x"/><use transform="matrix(0.05,0,0,0.05,292.54999999999995,0)" xlink:href="#y"/><use transform="matrix(0.05,0,0,0.05,298.49999999999994,0)" xlink:href="#aa"/><use transform="matrix(0.05,0,0,0.05,308.49999999999994,0)" xlink:href="#E"/><use transform="matrix(0.05,0,0,0.05,313.49999999999994,0)" xlink:href="#F"/><use transform="matrix(0.05,0,0,0.05,322.49999999999994,0)" xlink:href="#I"/><use transform="matrix(0.05,0,0,0.05,327.49999999999994,0)" xlink:href="#y"/><use transform="matrix(0.05,0,0,0.05,332.44999999999993,0)" xlink:href="#ac"/></g><g id="l"><use transform="matrix(0.05,0,0,0.05,0,0)" xlink:href="#B"/><use transform="matrix(0.05,0,0,0.05,10,0)" xlink:href="#J"/><use transform="matrix(0.05,0,0,0.05,20,0)" xlink:href="#Z"/><use transform="matrix(0.05,0,0,0.05,32.95,0)" xlink:href="#X"/><use transform="matrix(0.05,0,0,0.05,44.95,0)" xlink:href="#R"/><use transform="matrix(0.05,0,0,0.05,54.95,0)" xlink:href="#F"/><use transform="matrix(0.05,0,0,0.05,63.95,0)" xlink:href="#F"/><use transform="matrix(0.05,0,0,0.05,72.95,0)" xlink:href="#Z"/><use transform="matrix(0.05,0,0,0.05,85.9,0)" xlink:href="#x"/><use transform="matrix(0.05,0,0,0.05,95.9,0)" xlink:href="#y"/><use transform="matrix(0.05,0,0,0.05,101.85000000000001,0)" xlink:href="#aa"/><use transform="matrix(0.05,0,0,0.05,111.85000000000001,0)" xlink:href="#E"/></g><path fill="#333" d="M33-261c38 41 65 92 65 168S71 34 33 75H2C39 34 66-17 66-93S39-220 2-261h31" id="ad"/><g id="m"><use transform="matrix(0.05,0,0,0.05,0,0)" xlink:href="#F"/><use transform="matrix(0.05,0,0,0.05,9,0)" xlink:href="#I"/><use transform="matrix(0.05,0,0,0.05,14,0)" xlink:href="#y"/><use transform="matrix(0.05,0,0,0.05,19.95,0)" xlink:href="#ad"/></g><path fill="#333" d="M30 0v-248h187v28H63v79h144v27H63v87h162V0H30" id="ae"/><g id="n"><use transform="matrix(0.05,0,0,0.05,0,0)" xlink:href="#C"/><use transform="matrix(0.05,0,0,0.05,10,0)" xlink:href="#J"/><use transform="matrix(0.05,0,0,0.05,20,0)" xlink:href="#I"/><use transform="matrix(0.05,0,0,0.05,25,0)" xlink:href="#ae"/><use transform="matrix(0.05,0,0,0.05,37,0)" xlink:href="#B"/><use transform="matrix(0.05,0,0,0.05,47,0)" xlink:href="#I"/><use transform="matrix(0.05,0,0,0.05,52,0)" xlink:href="#y"/><use transform="matrix(0.05,0,0,0.05,57.95,0)" xlink:href="#T"/><use transform="matrix(0.05,0,0,0.05,66.95,0)" xlink:href="#ab"/><use transform="matrix(0.05,0,0,0.05,72.9,0)" xlink:href="#J"/><use transform="matrix(0.05,0,0,0.05,82.9,0)" xlink:href="#Y"/><use transform="matrix(0.05,0,0,0.05,97.85000000000001,0)" xlink:href="#R"/><use transform="matrix(0.05,0,0,0.05,107.85000000000001,0)" xlink:href="#A"/><use transform="matrix(0.05,0,0,0.05,111.80000000000001,0)" xlink:href="#H"/><use transform="matrix(0.05,0,0,0.05,115.75,0)" xlink:href="#E"/></g><g id="o"><use transform="matrix(0.05,0,0,0.05,0,0)" xlink:href="#F"/><use transform="matrix(0.05,0,0,0.05,9,0)" xlink:href="#I"/><use transform="matrix(0.05,0,0,0.05,14,0)" xlink:href="#y"/><use transform="matrix(0.05,0,0,0.05,18.95,0)" xlink:href="#ac"/></g><path fill="#333" d="M115-194c53 0 69 39 70 98 0 66-23 100-70 100C84 3 66-7 56-30L54 0H23l1-261h32v101c10-23 28-34 59-34zm-8 174c40 0 45-34 45-75 0-40-5-75-45-74-42 0-51 32-51 76 0 43 10 73 51 73" id="af"/><g id="p"><use transform="matrix(0.05,0,0,0.05,0,0)" xlink:href="#Z"/><use transform="matrix(0.05,0,0,0.05,12.950000000000001,0)" xlink:href="#J"/><use transform="matrix(0.05,0,0,0.05,22.950000000000003,0)" xlink:href="#af"/><use transform="matrix(0.05,0,0,0.05,32.95,0)" xlink:href="#F"/><use transform="matrix(0.05,0,0,0.05,41.95,0)" xlink:href="#A"/><use transform="matrix(0.05,0,0,0.05,45.900000000000006,0)" xlink:href="#I"/><use transform="matrix(0.05,0,0,0.05,50.900000000000006,0)" xlink:href="#J"/><use transform="matrix(0.05,0,0,0.05,60.900000000000006,0)" xlink:href="#E"/></g><g id="q"><use transform="matrix(0.05,0,0,0.05,0,0)" xlink:href="#P"/><use transform="matrix(0.05,0,0,0.05,10,0)" xlink:href="#N"/><use transform="matrix(0.05,0,0,0.05,20,0)" xlink:href="#I"/><use transform="matrix(0.05,0,0,0.05,25,0)" xlink:href="#ae"/><use transform="matrix(0.05,0,0,0.05,37,0)" xlink:href="#B"/><use transform="matrix(0.05,0,0,0.05,47,0)" xlink:href="#I"/><use transform="matrix(0.05,0,0,0.05,52,0)" xlink:href="#y"/><use transform="matrix(0.05,0,0,0.05,57.95,0)" xlink:href="#T"/><use transform="matrix(0.05,0,0,0.05,66.95,0)" xlink:href="#ab"/><use transform="matrix(0.05,0,0,0.05,72.9,0)" xlink:href="#J"/><use transform="matrix(0.05,0,0,0.05,82.9,0)" xlink:href="#Y"/><use transform="matrix(0.05,0,0,0.05,97.85000000000001,0)" xlink:href="#R"/><use transform="matrix(0.05,0,0,0.05,107.85000000000001,0)" xlink:href="#A"/><use transform="matrix(0.05,0,0,0.05,111.80000000000001,0)" xlink:href="#H"/><use transform="matrix(0.05,0,0,0.05,115.75,0)" xlink:href="#E"/></g><g id="r"><use transform="matrix(0.05,0,0,0.05,0,0)" xlink:href="#P"/><use transform="matrix(0.05,0,0,0.05,10,0)" xlink:href="#R"/><use transform="matrix(0.05,0,0,0.05,20,0)" xlink:href="#F"/><use transform="matrix(0.05,0,0,0.05,29,0)" xlink:href="#F"/><use transform="matrix(0.05,0,0,0.05,38,0)" xlink:href="#Z"/><use transform="matrix(0.05,0,0,0.05,50.95,0)" xlink:href="#x"/><use transform="matrix(0.05,0,0,0.05,60.95,0)" xlink:href="#y"/><use transform="matrix(0.05,0,0,0.05,66.9,0)" xlink:href="#aa"/><use transform="matrix(0.05,0,0,0.05,76.9,0)" xlink:href="#E"/></g><g id="s"><use transform="matrix(0.05,0,0,0.05,0,0)" xlink:href="#N"/><use transform="matrix(0.05,0,0,0.05,10,0)" xlink:href="#P"/><use transform="matrix(0.05,0,0,0.05,20,0)" xlink:href="#aa"/><use transform="matrix(0.05,0,0,0.05,30,0)" xlink:href="#R"/><use transform="matrix(0.05,0,0,0.05,40,0)" xlink:href="#I"/><use transform="matrix(0.05,0,0,0.05,45,0)" xlink:href="#J"/><use transform="matrix(0.05,0,0,0.05,55,0)" xlink:href="#ae"/><use transform="matrix(0.05,0,0,0.05,67,0)" xlink:href="#B"/><use transform="matrix(0.05,0,0,0.05,77,0)" xlink:href="#I"/><use transform="matrix(0.05,0,0,0.05,82,0)" xlink:href="#y"/><use transform="matrix(0.05,0,0,0.05,87.95,0)" xlink:href="#T"/><use transform="matrix(0.05,0,0,0.05,96.95,0)" xlink:href="#ab"/><use transform="matrix(0.05,0,0,0.05,102.9,0)" xlink:href="#x"/><use transform="matrix(0.05,0,0,0.05,112.9,0)" xlink:href="#H"/><use transform="matrix(0.05,0,0,0.05,116.85000000000001,0)" xlink:href="#aa"/><use transform="matrix(0.05,0,0,0.05,126.85000000000001,0)" xlink:href="#ae"/><use transform="matrix(0.05,0,0,0.05,138.85000000000002,0)" xlink:href="#Y"/><use transform="matrix(0.05,0,0,0.05,153.8,0)" xlink:href="#R"/><use transform="matrix(0.05,0,0,0.05,163.8,0)" xlink:href="#A"/><use transform="matrix(0.05,0,0,0.05,167.75,0)" xlink:href="#H"/><use transform="matrix(0.05,0,0,0.05,171.7,0)" xlink:href="#E"/></g><g id="t"><use transform="matrix(0.05,0,0,0.05,0,0)" xlink:href="#x"/><use transform="matrix(0.05,0,0,0.05,10,0)" xlink:href="#H"/><use transform="matrix(0.05,0,0,0.05,13.949999999999998,0)" xlink:href="#aa"/><use transform="matrix(0.05,0,0,0.05,23.95,0)" xlink:href="#w"/><use transform="matrix(0.05,0,0,0.05,40.55,0)" xlink:href="#J"/><use transform="matrix(0.05,0,0,0.05,50.55,0)" xlink:href="#af"/><use transform="matrix(0.05,0,0,0.05,60.54999999999999,0)" xlink:href="#F"/><use transform="matrix(0.05,0,0,0.05,69.55,0)" xlink:href="#A"/><use transform="matrix(0.05,0,0,0.05,73.5,0)" xlink:href="#I"/><use transform="matrix(0.05,0,0,0.05,78.5,0)" xlink:href="#J"/><use transform="matrix(0.05,0,0,0.05,88.5,0)" xlink:href="#E"/></g><g id="u"><use transform="matrix(0.05,0,0,0.05,0,0)" xlink:href="#J"/><use transform="matrix(0.05,0,0,0.05,10,0)" xlink:href="#Y"/><use transform="matrix(0.05,0,0,0.05,24.950000000000003,0)" xlink:href="#R"/><use transform="matrix(0.05,0,0,0.05,34.95,0)" xlink:href="#A"/><use transform="matrix(0.05,0,0,0.05,38.900000000000006,0)" xlink:href="#H"/><use transform="matrix(0.05,0,0,0.05,42.85000000000001,0)" xlink:href="#E"/></g><g id="v"><use transform="matrix(0.05,0,0,0.05,0,0)" xlink:href="#F"/><use transform="matrix(0.05,0,0,0.05,9,0)" xlink:href="#J"/><use transform="matrix(0.05,0,0,0.05,19,0)" xlink:href="#J"/><use transform="matrix(0.05,0,0,0.05,29,0)" xlink:href="#ae"/><use transform="matrix(0.05,0,0,0.05,41,0)" xlink:href="#B"/><use transform="matrix(0.05,0,0,0.05,51,0)" xlink:href="#I"/><use transform="matrix(0.05,0,0,0.05,56,0)" xlink:href="#y"/><use transform="matrix(0.05,0,0,0.05,61.95,0)" xlink:href="#A"/><use transform="matrix(0.05,0,0,0.05,65.9,0)" xlink:href="#J"/><use transform="matrix(0.05,0,0,0.05,75.9,0)" xlink:href="#F"/><use transform="matrix(0.05,0,0,0.05,84.9,0)" xlink:href="#ab"/><use transform="matrix(0.05,0,0,0.05,90.85000000000001,0)" xlink:href="#ad"/></g></defs></g></svg>